<mxfile host="app.diagrams.net" modified="2021-09-08T03:30:21.407Z" agent="5.0 (Macintosh; Intel Mac OS X 10_15_7) AppleWebKit/537.36 (KHTML, like Gecko) Chrome/92.0.4515.131 Safari/537.36" etag="Lb6Yg805ibncLbQoaG6N" version="15.1.0" type="github">
  <diagram id="C5RBs43oDa-KdzZeNtuy" name="Page-1">
    <mxGraphModel dx="760" dy="419" grid="1" gridSize="10" guides="1" tooltips="1" connect="1" arrows="1" fold="1" page="1" pageScale="1" pageWidth="1169" pageHeight="1654" math="0" shadow="0">
      <root>
        <mxCell id="WIyWlLk6GJQsqaUBKTNV-0" />
        <mxCell id="WIyWlLk6GJQsqaUBKTNV-1" parent="WIyWlLk6GJQsqaUBKTNV-0" />
        <mxCell id="TprQWrDfrRet0L_6w_Vi-0" value="&lt;b&gt;Movie Plots&lt;/b&gt;" style="rounded=1;whiteSpace=wrap;html=1;fillColor=#dae8fc;strokeColor=#6c8ebf;fontFamily=Times New Roman;" vertex="1" parent="WIyWlLk6GJQsqaUBKTNV-1">
          <mxGeometry x="10" y="205" width="90" height="45" as="geometry" />
        </mxCell>
        <mxCell id="TprQWrDfrRet0L_6w_Vi-1" value="" style="shape=flexArrow;endArrow=classic;html=1;endWidth=4;endSize=3.67;fillColor=#FFCC99;strokeColor=#A9C4EB;exitX=1;exitY=0.5;exitDx=0;exitDy=0;" edge="1" parent="WIyWlLk6GJQsqaUBKTNV-1" source="TprQWrDfrRet0L_6w_Vi-20">
          <mxGeometry width="50" height="50" relative="1" as="geometry">
            <mxPoint x="220" y="227" as="sourcePoint" />
            <mxPoint x="250" y="227" as="targetPoint" />
          </mxGeometry>
        </mxCell>
        <mxCell id="TprQWrDfrRet0L_6w_Vi-11" value="" style="edgeStyle=orthogonalEdgeStyle;shape=flexArrow;rounded=0;orthogonalLoop=1;jettySize=auto;html=1;fontFamily=Times New Roman;strokeColor=#A9C4EB;fillColor=#FFCC99;entryX=0;entryY=0.5;entryDx=0;entryDy=0;endWidth=14;endSize=5.57;" edge="1" parent="WIyWlLk6GJQsqaUBKTNV-1" source="TprQWrDfrRet0L_6w_Vi-2" target="TprQWrDfrRet0L_6w_Vi-5">
          <mxGeometry relative="1" as="geometry">
            <mxPoint x="324" y="140" as="targetPoint" />
            <Array as="points">
              <mxPoint x="295" y="183" />
              <mxPoint x="330" y="183" />
            </Array>
          </mxGeometry>
        </mxCell>
        <mxCell id="TprQWrDfrRet0L_6w_Vi-18" value="" style="edgeStyle=orthogonalEdgeStyle;shape=flexArrow;rounded=0;orthogonalLoop=1;jettySize=auto;html=1;fontFamily=Times New Roman;strokeColor=#A9C4EB;fillColor=#FFCC99;entryX=0;entryY=0.5;entryDx=0;entryDy=0;exitX=0.5;exitY=1;exitDx=0;exitDy=0;endWidth=11;endSize=5.67;" edge="1" parent="WIyWlLk6GJQsqaUBKTNV-1" source="TprQWrDfrRet0L_6w_Vi-2" target="TprQWrDfrRet0L_6w_Vi-12">
          <mxGeometry relative="1" as="geometry">
            <mxPoint x="295" y="322.5" as="targetPoint" />
          </mxGeometry>
        </mxCell>
        <mxCell id="TprQWrDfrRet0L_6w_Vi-2" value="&lt;b&gt;Text Pre-processing&lt;/b&gt;" style="rounded=1;whiteSpace=wrap;html=1;fillColor=#dae8fc;strokeColor=#6c8ebf;fontFamily=Times New Roman;" vertex="1" parent="WIyWlLk6GJQsqaUBKTNV-1">
          <mxGeometry x="250" y="205" width="90" height="45" as="geometry" />
        </mxCell>
        <mxCell id="TprQWrDfrRet0L_6w_Vi-14" value="" style="group" vertex="1" connectable="0" parent="WIyWlLk6GJQsqaUBKTNV-1">
          <mxGeometry x="360" y="140" width="290" height="85" as="geometry" />
        </mxCell>
        <mxCell id="TprQWrDfrRet0L_6w_Vi-5" value="&lt;b&gt;Conventional Machine Learning&lt;/b&gt;" style="rounded=1;whiteSpace=wrap;html=1;fillColor=#dae8fc;strokeColor=#6c8ebf;labelPosition=center;verticalLabelPosition=middle;align=center;verticalAlign=top;arcSize=19;fontFamily=Times New Roman;" vertex="1" parent="TprQWrDfrRet0L_6w_Vi-14">
          <mxGeometry width="290" height="85" as="geometry" />
        </mxCell>
        <mxCell id="TprQWrDfrRet0L_6w_Vi-6" value="&lt;b&gt;Feature Extraction&lt;/b&gt;&lt;br&gt;TF-IDF/Word2Vec" style="rounded=1;whiteSpace=wrap;html=1;verticalAlign=middle;strokeColor=#FFFFFF;fontFamily=Times New Roman;" vertex="1" parent="TprQWrDfrRet0L_6w_Vi-14">
          <mxGeometry x="20" y="30" width="120" height="45" as="geometry" />
        </mxCell>
        <mxCell id="TprQWrDfrRet0L_6w_Vi-7" value="&lt;b&gt;Classifier&lt;/b&gt;&lt;br&gt;NB/KNN/SVM/RF" style="rounded=1;whiteSpace=wrap;html=1;verticalAlign=middle;strokeColor=#FFFFFF;fontFamily=Times New Roman;" vertex="1" parent="TprQWrDfrRet0L_6w_Vi-14">
          <mxGeometry x="150" y="30" width="120" height="45" as="geometry" />
        </mxCell>
        <mxCell id="TprQWrDfrRet0L_6w_Vi-15" value="" style="group" vertex="1" connectable="0" parent="WIyWlLk6GJQsqaUBKTNV-1">
          <mxGeometry x="360" y="240" width="290" height="85" as="geometry" />
        </mxCell>
        <mxCell id="TprQWrDfrRet0L_6w_Vi-12" value="&lt;b&gt;Transformer-based&lt;/b&gt;" style="rounded=1;whiteSpace=wrap;html=1;fillColor=#dae8fc;strokeColor=#6c8ebf;labelPosition=center;verticalLabelPosition=middle;align=center;verticalAlign=top;arcSize=19;fontFamily=Times New Roman;" vertex="1" parent="TprQWrDfrRet0L_6w_Vi-15">
          <mxGeometry width="290" height="85" as="geometry" />
        </mxCell>
        <mxCell id="TprQWrDfrRet0L_6w_Vi-13" value="&lt;b&gt;Models&lt;/b&gt;&lt;br&gt;BERT/GPT" style="rounded=1;whiteSpace=wrap;html=1;verticalAlign=middle;strokeColor=#FFFFFF;fontFamily=Times New Roman;" vertex="1" parent="TprQWrDfrRet0L_6w_Vi-15">
          <mxGeometry x="85" y="30" width="120" height="45" as="geometry" />
        </mxCell>
        <mxCell id="TprQWrDfrRet0L_6w_Vi-20" value="&lt;b&gt;Text Summarization&lt;/b&gt;" style="rounded=1;whiteSpace=wrap;html=1;fillColor=#dae8fc;strokeColor=#6c8ebf;fontFamily=Times New Roman;" vertex="1" parent="WIyWlLk6GJQsqaUBKTNV-1">
          <mxGeometry x="130" y="160" width="90" height="45" as="geometry" />
        </mxCell>
        <mxCell id="TprQWrDfrRet0L_6w_Vi-21" value="" style="shape=flexArrow;endArrow=classic;html=1;endWidth=4;endSize=3.67;fillColor=#FFCC99;strokeColor=#A9C4EB;entryX=0;entryY=0.5;entryDx=0;entryDy=0;" edge="1" parent="WIyWlLk6GJQsqaUBKTNV-1" target="TprQWrDfrRet0L_6w_Vi-20">
          <mxGeometry width="50" height="50" relative="1" as="geometry">
            <mxPoint x="100" y="227" as="sourcePoint" />
            <mxPoint x="130" y="227" as="targetPoint" />
          </mxGeometry>
        </mxCell>
        <mxCell id="TprQWrDfrRet0L_6w_Vi-22" value="" style="shape=flexArrow;endArrow=classic;html=1;endWidth=4;endSize=3.67;fillColor=#FFCC99;strokeColor=#A9C4EB;entryX=0;entryY=0.75;entryDx=0;entryDy=0;exitX=1;exitY=0.75;exitDx=0;exitDy=0;" edge="1" parent="WIyWlLk6GJQsqaUBKTNV-1" source="TprQWrDfrRet0L_6w_Vi-0" target="TprQWrDfrRet0L_6w_Vi-2">
          <mxGeometry width="50" height="50" relative="1" as="geometry">
            <mxPoint x="110" y="237" as="sourcePoint" />
            <mxPoint x="140" y="192.5" as="targetPoint" />
          </mxGeometry>
        </mxCell>
        <mxCell id="TprQWrDfrRet0L_6w_Vi-23" value="&lt;b&gt;Evaluation&lt;/b&gt;&lt;br&gt;Accuracy/F1" style="rounded=1;whiteSpace=wrap;html=1;fillColor=#dae8fc;strokeColor=#6c8ebf;fontFamily=Times New Roman;" vertex="1" parent="WIyWlLk6GJQsqaUBKTNV-1">
          <mxGeometry x="690" y="205" width="90" height="45" as="geometry" />
        </mxCell>
        <mxCell id="TprQWrDfrRet0L_6w_Vi-24" value="&lt;b&gt;Label&lt;/b&gt;" style="rounded=1;whiteSpace=wrap;html=1;fillColor=#dae8fc;strokeColor=#6c8ebf;fontFamily=Times New Roman;" vertex="1" parent="WIyWlLk6GJQsqaUBKTNV-1">
          <mxGeometry x="860" y="205" width="90" height="45" as="geometry" />
        </mxCell>
        <mxCell id="TprQWrDfrRet0L_6w_Vi-25" value="" style="shape=flexArrow;endArrow=classic;html=1;endWidth=4;endSize=3.67;fillColor=#FFCC99;strokeColor=#A9C4EB;exitX=1;exitY=0.5;exitDx=0;exitDy=0;" edge="1" parent="WIyWlLk6GJQsqaUBKTNV-1">
          <mxGeometry width="50" height="50" relative="1" as="geometry">
            <mxPoint x="780" y="330" as="sourcePoint" />
            <mxPoint x="810" y="374.5" as="targetPoint" />
          </mxGeometry>
        </mxCell>
      </root>
    </mxGraphModel>
  </diagram>
</mxfile>
